# xmcd
#
# Track frame offsets:
#	150
#	12925
#	27427
#	39465
#	56820
#	69715
#	80450
#	93907
#	105227
#	118697
#	131927
#	145025
#	159682
#	173060
#	185985
#	200507
#	212387
#
# Disc length: 3020 seconds
#
# Revision: 3
# Processed by: cddbd v1.5.2PL0 Copyright (c) Steve Scherf et al.
# Submitted via: audiograbber 1.83.01
#
DISCID=f00bca11
DTITLE=Various Artist - Ain't Nothing But The Blues
DYEAR=1996
DGENRE=Blues
TTITLE0=Elmore James - The Sun Is Shining
TTITLE1=Howling Wolf - Smokestack Lightning
TTITLE2=Little Walter - My Babe
TTITLE3=Johny Guitar Watson - Gangter of Love
TTITLE4=Muddy Waters - I'm your Hoochie Coochie Man
TTITLE5=Buddy Guy - The First Time I Met The Blues
TTITLE6=Elmore James - Dust my Broom
TTITLE7=Howling Wolf - Little Red Rooster
TTITLE8=Buddy Guy - Let Me Love You Baby
TTITLE9=Jimmy Whiterspoon - When The Lights Go Out
TTITLE10=B.B. King - Everyday I Have The Blues
TTITLE11=Lowel Fulson - Reconsider Baby
TTITLE12=Big Maceo - Worried Life Blues
TTITLE13=Big Joe Williams - Baby Please Don't Go
TTITLE14=John Lee Hooker - Boogie Chillin'
TTITLE15=Son House - John The Revelator
TTITLE16=Big Bill Broonzy - Bad Luck Blues
EXTD=
EXTT0=
EXTT1=
EXTT2=
EXTT3=
EXTT4=
EXTT5=
EXTT6=
EXTT7=
EXTT8=
EXTT9=
EXTT10=
EXTT11=
EXTT12=
EXTT13=
EXTT14=
EXTT15=
EXTT16=
PLAYORDER=
